<mxfile host="app.diagrams.net" modified="2022-03-10T13:00:25.817Z" agent="5.0 (Windows NT 10.0; Win64; x64) AppleWebKit/537.36 (KHTML, like Gecko) Chrome/99.0.4844.51 Safari/537.36" etag="fPkRr8UzAUgTNjE7mRiN" version="17.1.0" type="github">
  <diagram id="yPxyJZ8AM_hMuL3Unpa9" name="complex gitflow">
    <mxGraphModel dx="782" dy="436" grid="1" gridSize="10" guides="1" tooltips="1" connect="1" arrows="1" fold="1" page="1" pageScale="1" pageWidth="1100" pageHeight="850" math="0" shadow="0">
      <root>
        <mxCell id="0" />
        <mxCell id="1" parent="0" />
        <mxCell id="Jpg5ENDlcfB2epOClS06-18" value="" style="edgeStyle=orthogonalEdgeStyle;shape=flexArrow;rounded=0;orthogonalLoop=1;jettySize=auto;html=1;fontSize=14;" parent="1" edge="1">
          <mxGeometry relative="1" as="geometry">
            <mxPoint x="115" y="234" as="sourcePoint" />
            <mxPoint x="115" y="340" as="targetPoint" />
          </mxGeometry>
        </mxCell>
        <mxCell id="Jpg5ENDlcfB2epOClS06-9" value="&lt;span style=&quot;text-align: center&quot;&gt;&lt;font style=&quot;font-size: 14px&quot;&gt;Valid data&lt;/font&gt;&lt;br&gt;&lt;/span&gt;" style="text;html=1;strokeColor=none;fillColor=none;align=left;verticalAlign=middle;whiteSpace=wrap;overflow=hidden;fontSize=12;fontStyle=0;fontColor=#000000;" parent="1" vertex="1">
          <mxGeometry x="250" y="203" width="90" height="25" as="geometry" />
        </mxCell>
        <mxCell id="Jpg5ENDlcfB2epOClS06-15" value="" style="endArrow=classic;html=1;rounded=0;fontSize=14;shape=flexArrow;endWidth=9;endSize=6.13;" parent="1" edge="1">
          <mxGeometry width="50" height="50" relative="1" as="geometry">
            <mxPoint x="150" y="201" as="sourcePoint" />
            <mxPoint x="450" y="203" as="targetPoint" />
          </mxGeometry>
        </mxCell>
        <mxCell id="Jpg5ENDlcfB2epOClS06-19" value="&lt;span style=&quot;text-align: center&quot;&gt;&lt;span style=&quot;font-size: 14px&quot;&gt;Need to register&lt;/span&gt;&lt;br&gt;&lt;/span&gt;" style="text;html=1;strokeColor=none;fillColor=none;align=left;verticalAlign=middle;whiteSpace=wrap;overflow=hidden;fontSize=12;fontStyle=0;fontColor=#000000;rotation=-90;" parent="1" vertex="1">
          <mxGeometry x="48.25" y="250" width="71.75" height="51.5" as="geometry" />
        </mxCell>
        <mxCell id="Jpg5ENDlcfB2epOClS06-21" value="&lt;span style=&quot;color: rgba(0 , 0 , 0 , 0) ; font-family: monospace ; font-size: 0px&quot;&gt;%3CmxGraphModel%3E%3Croot%3E%3CmxCell%20id%3D%220%22%2F%3E%3CmxCell%20id%3D%221%22%20parent%3D%220%22%2F%3E%3CmxCell%20id%3D%222%22%20value%3D%22%26lt%3Bspan%20style%3D%26quot%3Btext-align%3A%20center%26quot%3B%26gt%3BFeel%20free%20to%20add%20notes%20here%20about%20the%20process%20of%20merging%20into%20the%20release%20branch.%26lt%3Bbr%26gt%3B%26lt%3B%2Fspan%26gt%3B%22%20style%3D%22text%3Bhtml%3D1%3BstrokeColor%3Dnone%3BfillColor%3Dnone%3Balign%3Dleft%3BverticalAlign%3Dmiddle%3BwhiteSpace%3Dwrap%3Boverflow%3Dhidden%3BfontSize%3D12%3BfontStyle%3D0%3BfontColor%3D%23000000%3B%22%20vertex%3D%221%22%20parent%3D%221%22%3E%3CmxGeometry%20x%3D%22243.25%22%20y%3D%22343%22%20width%3D%22163.25%22%20height%3D%2266%22%20as%3D%22geometry%22%2F%3E%3C%2FmxCell%3E%3C%2Froot%3E%3C%2FmxGraphModel%3E&lt;/span&gt;" style="text;html=1;align=center;verticalAlign=middle;resizable=0;points=[];autosize=1;strokeColor=none;fillColor=none;fontSize=14;" parent="1" vertex="1">
          <mxGeometry x="120" y="135" width="20" height="30" as="geometry" />
        </mxCell>
        <mxCell id="Jpg5ENDlcfB2epOClS06-26" value="" style="curved=1;endArrow=classic;html=1;rounded=0;fontSize=14;shape=flexArrow;entryX=0.5;entryY=1;entryDx=0;entryDy=0;endWidth=10;endSize=4.56;" parent="1" target="Jpg5ENDlcfB2epOClS06-27" edge="1">
          <mxGeometry width="50" height="50" relative="1" as="geometry">
            <mxPoint x="140" y="365" as="sourcePoint" />
            <mxPoint x="500" y="320" as="targetPoint" />
            <Array as="points">
              <mxPoint x="400" y="365" />
              <mxPoint x="480" y="365" />
            </Array>
          </mxGeometry>
        </mxCell>
        <mxCell id="Jpg5ENDlcfB2epOClS06-27" value="" style="ellipse;whiteSpace=wrap;html=1;aspect=fixed;fontSize=14;strokeColor=#9CFF91;" parent="1" vertex="1">
          <mxGeometry x="450" y="168" width="60" height="60" as="geometry" />
        </mxCell>
        <mxCell id="Jpg5ENDlcfB2epOClS06-28" value="Invalid data" style="text;html=1;strokeColor=none;fillColor=none;align=center;verticalAlign=middle;whiteSpace=wrap;rounded=0;fontSize=14;" parent="1" vertex="1">
          <mxGeometry x="120" y="120" width="80" height="30" as="geometry" />
        </mxCell>
        <mxCell id="uWUnNED6HEl2aK5fdaIb-101" value="Sign in" style="text;html=1;strokeColor=none;fillColor=none;align=center;verticalAlign=middle;whiteSpace=wrap;overflow=hidden;fontSize=14;" parent="1" vertex="1">
          <mxGeometry x="455" y="188" width="50" height="20" as="geometry" />
        </mxCell>
        <mxCell id="Jpg5ENDlcfB2epOClS06-37" style="edgeStyle=orthogonalEdgeStyle;shape=flexArrow;rounded=0;orthogonalLoop=1;jettySize=auto;html=1;exitX=0.5;exitY=0;exitDx=0;exitDy=0;fontSize=14;entryX=0.5;entryY=0;entryDx=0;entryDy=0;" parent="1" source="Jpg5ENDlcfB2epOClS06-32" target="Jpg5ENDlcfB2epOClS06-27" edge="1">
          <mxGeometry relative="1" as="geometry">
            <mxPoint x="270" y="130" as="targetPoint" />
          </mxGeometry>
        </mxCell>
        <mxCell id="Jpg5ENDlcfB2epOClS06-32" value="" style="ellipse;whiteSpace=wrap;html=1;aspect=fixed;fontSize=14;strokeColor=#9CFF91;" parent="1" vertex="1">
          <mxGeometry x="87.69" y="171" width="68" height="68" as="geometry" />
        </mxCell>
        <mxCell id="Jpg5ENDlcfB2epOClS06-22" value="&lt;span style=&quot;text-align: center&quot;&gt;&lt;font style=&quot;font-size: 14px&quot;&gt;Sign in&lt;/font&gt;&lt;br&gt;&lt;/span&gt;" style="text;html=1;strokeColor=none;fillColor=none;align=left;verticalAlign=middle;whiteSpace=wrap;overflow=hidden;fontSize=12;fontStyle=0;fontColor=#000000;" parent="1" vertex="1">
          <mxGeometry x="99.07" y="187.5" width="56.62" height="35" as="geometry" />
        </mxCell>
        <mxCell id="Jpg5ENDlcfB2epOClS06-33" value="" style="ellipse;whiteSpace=wrap;html=1;aspect=fixed;fontSize=14;strokeColor=#9CFF91;" parent="1" vertex="1">
          <mxGeometry x="75.69" y="333.5" width="66.5" height="66.5" as="geometry" />
        </mxCell>
        <mxCell id="Jpg5ENDlcfB2epOClS06-23" value="&lt;span style=&quot;text-align: center&quot;&gt;&lt;font style=&quot;font-size: 14px&quot;&gt;Sign up&lt;/font&gt;&lt;br&gt;&lt;/span&gt;" style="text;html=1;strokeColor=none;fillColor=none;align=left;verticalAlign=middle;whiteSpace=wrap;overflow=hidden;fontSize=12;fontStyle=0;fontColor=#000000;" parent="1" vertex="1">
          <mxGeometry x="85.69" y="350" width="60" height="30" as="geometry" />
        </mxCell>
        <mxCell id="Jpg5ENDlcfB2epOClS06-35" value="&lt;span style=&quot;text-align: center&quot;&gt;&lt;font style=&quot;font-size: 14px&quot;&gt;Valid data&lt;/font&gt;&lt;br&gt;&lt;/span&gt;" style="text;html=1;strokeColor=none;fillColor=none;align=left;verticalAlign=middle;whiteSpace=wrap;overflow=hidden;fontSize=12;fontStyle=0;fontColor=#000000;" parent="1" vertex="1">
          <mxGeometry x="243.25" y="336" width="90" height="25" as="geometry" />
        </mxCell>
        <mxCell id="Fn8Yw06RCaYUdq_kghm7-8" style="edgeStyle=orthogonalEdgeStyle;rounded=0;orthogonalLoop=1;jettySize=auto;html=1;entryX=0;entryY=0.5;entryDx=0;entryDy=0;" edge="1" parent="1" source="Fn8Yw06RCaYUdq_kghm7-1" target="Jpg5ENDlcfB2epOClS06-32">
          <mxGeometry relative="1" as="geometry">
            <Array as="points">
              <mxPoint x="255" y="110" />
              <mxPoint x="68" y="110" />
              <mxPoint x="68" y="205" />
            </Array>
          </mxGeometry>
        </mxCell>
        <mxCell id="Fn8Yw06RCaYUdq_kghm7-1" value="" style="ellipse;whiteSpace=wrap;html=1;aspect=fixed;strokeColor=#CCFFCC;" vertex="1" parent="1">
          <mxGeometry x="227.5" y="120" width="55" height="55" as="geometry" />
        </mxCell>
        <mxCell id="Fn8Yw06RCaYUdq_kghm7-4" value="Try again" style="text;html=1;strokeColor=none;fillColor=none;align=center;verticalAlign=middle;whiteSpace=wrap;rounded=0;" vertex="1" parent="1">
          <mxGeometry x="220" y="130" width="70" height="30" as="geometry" />
        </mxCell>
      </root>
    </mxGraphModel>
  </diagram>
</mxfile>
